<svg xmlns="http://www.w3.org/2000/svg" width="50" height="50" fill="none" viewBox="0 0 50 50"><path fill="#fff" d="M14.0437 23.4062C13.6293 23.4062 13.2319 23.5709 12.9389 23.8639C12.6459 24.1569 12.4812 24.5543 12.4812 24.9687C12.4812 25.3831 12.6459 25.7806 12.9389 26.0736C13.2319 26.3666 13.6293 26.5312 14.0437 26.5312H20.2625C20.4679 26.5321 20.6715 26.4922 20.8614 26.414C21.0514 26.3358 21.2239 26.2207 21.3692 26.0754C21.5145 25.9302 21.6295 25.7576 21.7077 25.5677C21.786 25.3777 21.8258 25.1742 21.825 24.9687C21.825 24.5543 21.6604 24.1569 21.3674 23.8639C21.0743 23.5709 20.6769 23.4062 20.2625 23.4062H14.0437ZM14.0437 31.25C13.6293 31.25 13.2319 31.4146 12.9389 31.7076C12.6459 32.0007 12.4812 32.3981 12.4812 32.8125C12.4812 33.2269 12.6459 33.6243 12.9389 33.9174C13.2319 34.2104 13.6293 34.375 14.0437 34.375H20.2625C20.6769 34.375 21.0743 34.2104 21.3674 33.9174C21.6604 33.6243 21.825 33.2269 21.825 32.8125C21.825 32.3981 21.6604 32.0007 21.3674 31.7076C21.0743 31.4146 20.6769 31.25 20.2625 31.25H14.0437ZM15.575 17.1562C15.575 17.5706 15.4104 17.9681 15.1174 18.2611C14.8243 18.5541 14.4269 18.7187 14.0125 18.7187C13.5981 18.7187 13.2007 18.5541 12.9076 18.2611C12.6146 17.9681 12.45 17.5706 12.45 17.1562C12.45 16.7418 12.6146 16.3444 12.9076 16.0514C13.2007 15.7584 13.5981 15.5937 14.0125 15.5937C14.4269 15.5937 14.8243 15.7584 15.1174 16.0514C15.4104 16.3444 15.575 16.7418 15.575 17.1562ZM10.9375 9.375C9.6943 9.375 8.50201 9.86886 7.62294 10.7479C6.74386 11.627 6.25 12.8193 6.25 14.0625V35.9375C6.25 37.1807 6.74386 38.373 7.62294 39.2521C8.50201 40.1311 9.6943 40.625 10.9375 40.625H29.6875C31.7281 40.6312 33.7656 39.4187 34.2719 36.8312L34.7281 34.5H39.0625C40.3057 34.5 41.498 34.0061 42.3771 33.1271C43.2561 32.248 43.75 31.0557 43.75 29.8125V20.3437C43.75 17.3344 41.5125 15.7062 39.2188 15.625H28.1094V14.0625C28.1094 12.8193 27.6155 11.627 26.7364 10.7479C25.8574 9.86886 24.6651 9.375 23.4219 9.375H10.9375ZM28.1094 18.75H34.6406C34.5611 18.9846 34.4995 19.2248 34.4562 19.4687L33.9938 21.9125V21.9187L31.2031 36.2312C30.8406 38.0906 28.1094 37.825 28.1094 35.9344V18.75ZM24.9844 35.9344C24.9844 36.5062 25.0656 37.0281 25.2188 37.5H10.9375C10.5231 37.5 10.1257 37.3354 9.83265 37.0424C9.53962 36.7493 9.375 36.3519 9.375 35.9375V14.0625C9.375 13.6481 9.53962 13.2507 9.83265 12.9576C10.1257 12.6646 10.5231 12.5 10.9375 12.5H23.4219C23.8363 12.5 24.2337 12.6646 24.5267 12.9576C24.8198 13.2507 24.9844 13.6481 24.9844 14.0625V35.9344ZM39.0625 31.375H35.3375L37.0625 22.5094V22.5L37.5281 20.0469C37.8813 18.1844 40.625 18.4406 40.625 20.3375V29.8125C40.625 30.2269 40.4604 30.6243 40.1674 30.9174C39.8743 31.2104 39.4769 31.375 39.0625 31.375Z"/></svg>