<svg width="55" height="55" viewBox="0 0 55 55" fill="none" xmlns="http://www.w3.org/2000/svg">
<path d="M23.5714 39.1795C22.2095 39.0284 20.8699 38.7185 19.58 38.2563C19.6193 37.3291 19.6429 36.3627 19.6429 35.3569V34.033C20.8607 34.6144 22.1846 35.0191 23.5714 35.2194V25.5354C23.5714 23.9725 24.1923 22.4736 25.2974 21.3685C26.4025 20.2634 27.9014 19.6425 29.4643 19.6425H39.1482C38.8349 17.4656 38.004 15.3956 36.7252 13.6063C35.4465 11.8169 33.7571 10.3604 31.799 9.35906C29.8409 8.35768 27.6712 7.84061 25.4719 7.85125C23.2726 7.8619 21.108 8.39995 19.1596 9.42025C18.8489 8.13532 18.3371 6.90756 17.6432 5.78235C20.19 4.51115 23.006 3.87371 25.852 3.9242C28.6979 3.9747 31.4896 4.71165 33.9897 6.07239C36.4898 7.43314 38.6243 9.37744 40.2119 11.74C41.7994 14.1026 42.793 16.8136 43.1082 19.6425H49.1071C50.67 19.6425 52.1689 20.2634 53.274 21.3685C54.3792 22.4736 55 23.9725 55 25.5354V45.1785C55 46.7414 54.3792 48.2403 53.274 49.3454C52.1689 50.4505 50.67 51.0714 49.1071 51.0714H29.4643C27.9014 51.0714 26.4025 50.4505 25.2974 49.3454C24.1923 48.2403 23.5714 46.7414 23.5714 45.1785V39.1795ZM43.1082 23.5711C42.6618 27.5571 40.8739 31.2729 38.0378 34.1091C35.2018 36.9452 31.4859 38.7331 27.5 39.1795V45.1785C27.5 45.6994 27.7069 46.1991 28.0753 46.5674C28.4437 46.9358 28.9433 47.1428 29.4643 47.1428H49.1071C49.6281 47.1428 50.1277 46.9358 50.4961 46.5674C50.8645 46.1991 51.0714 45.6994 51.0714 45.1785V25.5354C51.0714 25.0144 50.8645 24.5148 50.4961 24.1464C50.1277 23.7781 49.6281 23.5711 49.1071 23.5711H43.1082ZM39.1482 23.5711H29.4643C28.9433 23.5711 28.4437 23.7781 28.0753 24.1464C27.7069 24.5148 27.5 25.0144 27.5 25.5354V35.2194C30.4385 34.7947 33.1607 33.4308 35.2601 31.3313C37.3596 29.2319 38.7235 26.5096 39.1482 23.5711ZM14.9089 25.7751C14.4964 24.2586 13.8286 22.7382 12.6814 21.5714C14.5357 19.8154 15.7143 17.0182 15.7143 13.7496C15.7143 11.0113 15.1604 9.12953 14.1586 7.62487C13.7141 6.97772 13.2003 6.38097 12.6264 5.84521C12.4065 5.63286 12.1838 5.42332 11.9586 5.21663C11.7189 4.9927 11.4989 4.78841 11.2121 4.50162C10.6229 3.91233 10.5561 3.4409 10.5561 3.1934C10.5567 3.05582 10.5793 2.91923 10.6229 2.78875C10.8025 2.40031 10.8503 1.96384 10.7591 1.54571C10.6679 1.12759 10.4427 0.750683 10.1176 0.472319C9.79257 0.193955 9.38551 0.0293624 8.95834 0.00357162C8.53116 -0.0222191 8.10725 0.0922029 7.75107 0.329437L7.74321 0.333366L7.73143 0.341223L7.69607 0.364795L7.57821 0.443367C6.98893 0.863693 6.42118 1.31343 5.87714 1.79088C4.895 2.6591 3.61429 3.94376 2.70679 5.47592C1.91459 6.74615 1.27879 8.10746 0.813214 9.53025C0.341786 10.9406 0 12.4688 0 13.7496C0 17.0182 1.17857 19.8114 3.03286 21.5754C1.88571 22.7382 1.21786 24.2586 0.805357 25.779C1.78814e-07 28.7333 0 32.3869 0 35.2116V35.3569C0 43.442 1.5125 48.2428 3.22536 51.0989C4.08571 52.5289 4.98143 53.4521 5.73179 54.0336C6.13161 54.3454 6.56674 54.6091 7.02821 54.8193C7.29509 54.9167 7.57394 54.9775 7.85714 55C8.18714 55 8.68607 54.8193 8.68607 54.8193C9.14754 54.6091 9.58268 54.3454 9.9825 54.0336C10.7289 53.4521 11.6325 52.5289 12.4889 51.0989C14.2018 48.2467 15.7143 43.442 15.7143 35.3569V35.2155C15.7143 32.3869 15.7143 28.7372 14.9089 25.7751ZM5.84179 24.3215C6.28571 23.8736 6.87893 23.5711 7.85714 23.5711C8.83929 23.5711 9.42857 23.8775 9.8725 24.3175C10.3675 24.8165 10.7957 25.6258 11.1179 26.8083C11.77 29.2087 11.7857 32.3594 11.7857 35.3569C11.7857 42.9863 10.3518 47.0249 9.11821 49.0796C8.64679 49.8653 8.20286 50.3721 7.85714 50.6903C7.36318 50.2153 6.93865 49.6731 6.59607 49.0796C5.3625 47.021 3.92857 42.9863 3.92857 35.3569C3.92857 32.3594 3.94429 29.2087 4.59643 26.8083C4.91857 25.6297 5.34679 24.8165 5.84179 24.3175V24.3215ZM7.85714 19.6425C6.34464 19.6425 3.92857 17.961 3.92857 13.7496C3.92857 13.0699 4.13286 11.9935 4.54143 10.7756C4.91375 9.62585 5.42706 8.52664 6.06964 7.50308C6.41143 6.92558 6.85536 6.36378 7.33464 5.84914C7.60571 6.32843 7.96321 6.81165 8.43464 7.28308C8.72143 7.56987 9.09464 7.91559 9.41286 8.21416L9.9 8.66988C10.3125 9.0706 10.6307 9.42025 10.8861 9.80918C11.3575 10.5124 11.7857 11.5771 11.7857 13.7496C11.7857 17.961 9.36964 19.6425 7.85714 19.6425Z" fill="#004899"/>
</svg>
