<svg width="90" height="54" viewBox="0 0 90 54" fill="none" xmlns="http://www.w3.org/2000/svg">
<path d="M1.20871 8.588C0.981382 8.588 0.805382 8.52567 0.680715 8.401C0.563382 8.269 0.504715 8.08933 0.504715 7.862V1.46C0.504715 1.22533 0.567048 1.04933 0.691715 0.932C0.816382 0.807333 0.992382 0.745 1.21971 0.745H3.87072C4.72138 0.745 5.37772 0.957666 5.83972 1.383C6.30171 1.80833 6.53271 2.40233 6.53271 3.165C6.53271 3.92767 6.30171 4.52533 5.83972 4.958C5.37772 5.38333 4.72138 5.596 3.87072 5.596H1.91271V7.862C1.91271 8.08933 1.85405 8.269 1.73671 8.401C1.61938 8.52567 1.44338 8.588 1.20871 8.588ZM1.91271 4.485H3.65071C4.14938 4.485 4.52705 4.375 4.78372 4.155C5.04038 3.92767 5.16872 3.59767 5.16872 3.165C5.16872 2.73233 5.04038 2.406 4.78372 2.186C4.52705 1.966 4.14938 1.856 3.65071 1.856H1.91271V4.485ZM11.8728 8.61C11.1248 8.61 10.4685 8.445 9.90379 8.115C9.34645 7.785 8.91379 7.323 8.60579 6.729C8.29779 6.12767 8.14379 5.42367 8.14379 4.617C8.14379 4.00833 8.23179 3.462 8.40779 2.978C8.58379 2.48667 8.83312 2.06867 9.15579 1.724C9.48579 1.372 9.87812 1.10433 10.3328 0.921C10.7948 0.730333 11.3081 0.635 11.8728 0.635C12.6281 0.635 13.2845 0.8 13.8418 1.13C14.3991 1.45267 14.8318 1.911 15.1398 2.505C15.4478 3.099 15.6018 3.79933 15.6018 4.606C15.6018 5.21467 15.5138 5.76467 15.3378 6.256C15.1618 6.74733 14.9088 7.169 14.5788 7.521C14.2561 7.873 13.8638 8.14433 13.4018 8.335C12.9471 8.51833 12.4375 8.61 11.8728 8.61ZM11.8728 7.4C12.3495 7.4 12.7528 7.29 13.0828 7.07C13.4201 6.85 13.6768 6.531 13.8528 6.113C14.0361 5.695 14.1278 5.19633 14.1278 4.617C14.1278 3.737 13.9298 3.055 13.5338 2.571C13.1451 2.087 12.5915 1.845 11.8728 1.845C11.4035 1.845 11.0001 1.955 10.6628 2.175C10.3255 2.38767 10.0651 2.703 9.88179 3.121C9.70579 3.53167 9.61779 4.03033 9.61779 4.617C9.61779 5.48967 9.81579 6.17167 10.2118 6.663C10.6078 7.15433 11.1615 7.4 11.8728 7.4ZM18.5185 8.5C18.2912 8.5 18.1152 8.43767 17.9905 8.313C17.8658 8.181 17.8035 8.00133 17.8035 7.774V1.427C17.8035 1.19233 17.8622 1.01633 17.9795 0.899C18.1042 0.774333 18.2802 0.712 18.5075 0.712C18.7348 0.712 18.9072 0.774333 19.0245 0.899C19.1492 1.01633 19.2115 1.19233 19.2115 1.427V7.301H22.4015C22.5995 7.301 22.7498 7.35233 22.8525 7.455C22.9625 7.55767 23.0175 7.70433 23.0175 7.895C23.0175 8.08567 22.9625 8.236 22.8525 8.346C22.7498 8.44867 22.5995 8.5 22.4015 8.5H18.5185ZM25.4543 8.588C25.2269 8.588 25.0509 8.52567 24.9263 8.401C24.8089 8.269 24.7503 8.08933 24.7503 7.862V1.383C24.7503 1.14833 24.8089 0.968666 24.9263 0.844C25.0509 0.719333 25.2269 0.656999 25.4543 0.656999C25.6816 0.656999 25.8539 0.719333 25.9713 0.844C26.0959 0.968666 26.1583 1.14833 26.1583 1.383V7.862C26.1583 8.08933 26.0996 8.269 25.9823 8.401C25.8649 8.52567 25.6889 8.588 25.4543 8.588ZM31.1988 8.588C30.9714 8.588 30.7954 8.52567 30.6708 8.401C30.5534 8.269 30.4948 8.08933 30.4948 7.862V1.922H28.3498C28.1591 1.922 28.0088 1.87067 27.8988 1.768C27.7961 1.658 27.7448 1.51133 27.7448 1.328C27.7448 1.13733 27.7961 0.994333 27.8988 0.899C28.0088 0.796333 28.1591 0.745 28.3498 0.745H34.0478C34.2384 0.745 34.3851 0.796333 34.4878 0.899C34.5978 0.994333 34.6528 1.13733 34.6528 1.328C34.6528 1.51133 34.5978 1.658 34.4878 1.768C34.3851 1.87067 34.2384 1.922 34.0478 1.922H31.9028V7.862C31.9028 8.08933 31.8441 8.269 31.7268 8.401C31.6094 8.52567 31.4334 8.588 31.1988 8.588ZM36.9748 8.5C36.7328 8.5 36.5458 8.43767 36.4138 8.313C36.2891 8.181 36.2268 7.994 36.2268 7.752V1.493C36.2268 1.251 36.2891 1.06767 36.4138 0.943C36.5458 0.811 36.7328 0.745 36.9748 0.745H40.9018C41.0851 0.745 41.2245 0.792666 41.3198 0.888C41.4225 0.983333 41.4738 1.119 41.4738 1.295C41.4738 1.47833 41.4225 1.62133 41.3198 1.724C41.2245 1.81933 41.0851 1.867 40.9018 1.867H37.5798V4.001H40.6598C40.8505 4.001 40.9935 4.04867 41.0888 4.144C41.1841 4.23933 41.2318 4.37867 41.2318 4.562C41.2318 4.74533 41.1841 4.88467 41.0888 4.98C40.9935 5.07533 40.8505 5.123 40.6598 5.123H37.5798V7.378H40.9018C41.0851 7.378 41.2245 7.42567 41.3198 7.521C41.4225 7.61633 41.4738 7.75567 41.4738 7.939C41.4738 8.12233 41.4225 8.26167 41.3198 8.357C41.2245 8.45233 41.0851 8.5 40.9018 8.5H36.9748ZM44.2643 8.588C44.0369 8.588 43.8609 8.52567 43.7363 8.401C43.6189 8.269 43.5603 8.08933 43.5603 7.862V1.372C43.5603 1.13733 43.6189 0.961333 43.7363 0.844C43.8609 0.719333 44.0369 0.656999 44.2643 0.656999C44.4916 0.656999 44.6639 0.719333 44.7813 0.844C44.9059 0.961333 44.9683 1.13733 44.9683 1.372V4.177H44.9903L48.1473 1.009C48.2646 0.891666 48.3819 0.803666 48.4993 0.745C48.6166 0.686333 48.7486 0.656999 48.8953 0.656999C49.1079 0.656999 49.2583 0.712 49.3463 0.822C49.4416 0.932 49.4783 1.06033 49.4563 1.207C49.4416 1.35367 49.3719 1.48933 49.2473 1.614L46.0353 4.793L46.0463 4.155L49.4013 7.565C49.5553 7.71167 49.6359 7.86567 49.6433 8.027C49.6506 8.18833 49.5993 8.324 49.4893 8.434C49.3866 8.53667 49.2326 8.588 49.0273 8.588C48.8513 8.588 48.7083 8.55133 48.5983 8.478C48.4956 8.40467 48.3746 8.29833 48.2353 8.159L44.9903 4.914H44.9683V7.862C44.9683 8.08933 44.9096 8.269 44.7923 8.401C44.6749 8.52567 44.4989 8.588 44.2643 8.588ZM52.3057 8.588C52.093 8.588 51.928 8.52933 51.8107 8.412C51.7007 8.29467 51.6457 8.126 51.6457 7.906V1.361C51.6457 1.13367 51.7007 0.961333 51.8107 0.844C51.928 0.719333 52.0784 0.656999 52.2617 0.656999C52.4304 0.656999 52.555 0.689999 52.6357 0.755999C52.7237 0.814666 52.8264 0.917333 52.9437 1.064L57.1567 6.531H56.8707V1.328C56.8707 1.11533 56.9257 0.950333 57.0357 0.833C57.153 0.715666 57.318 0.656999 57.5307 0.656999C57.7434 0.656999 57.9047 0.715666 58.0147 0.833C58.1247 0.950333 58.1797 1.11533 58.1797 1.328V7.928C58.1797 8.13333 58.1284 8.29467 58.0257 8.412C57.923 8.52933 57.7837 8.588 57.6077 8.588C57.439 8.588 57.3034 8.555 57.2007 8.489C57.1054 8.423 56.999 8.31667 56.8817 8.17L52.6797 2.703H52.9547V7.906C52.9547 8.126 52.8997 8.29467 52.7897 8.412C52.6797 8.52933 52.5184 8.588 52.3057 8.588ZM61.3482 8.588C61.1209 8.588 60.9449 8.52567 60.8202 8.401C60.7029 8.269 60.6442 8.08933 60.6442 7.862V1.383C60.6442 1.14833 60.7029 0.968666 60.8202 0.844C60.9449 0.719333 61.1209 0.656999 61.3482 0.656999C61.5755 0.656999 61.7479 0.719333 61.8652 0.844C61.9899 0.968666 62.0522 1.14833 62.0522 1.383V7.862C62.0522 8.08933 61.9935 8.269 61.8762 8.401C61.7589 8.52567 61.5829 8.588 61.3482 8.588ZM65.2227 8.588C64.9954 8.588 64.8194 8.52567 64.6947 8.401C64.5774 8.269 64.5187 8.08933 64.5187 7.862V1.372C64.5187 1.13733 64.5774 0.961333 64.6947 0.844C64.8194 0.719333 64.9954 0.656999 65.2227 0.656999C65.45 0.656999 65.6224 0.719333 65.7397 0.844C65.8644 0.961333 65.9267 1.13733 65.9267 1.372V4.177H65.9487L69.1057 1.009C69.223 0.891666 69.3404 0.803666 69.4577 0.745C69.575 0.686333 69.707 0.656999 69.8537 0.656999C70.0664 0.656999 70.2167 0.712 70.3047 0.822C70.4 0.932 70.4367 1.06033 70.4147 1.207C70.4 1.35367 70.3304 1.48933 70.2057 1.614L66.9937 4.793L67.0047 4.155L70.3597 7.565C70.5137 7.71167 70.5944 7.86567 70.6017 8.027C70.609 8.18833 70.5577 8.324 70.4477 8.434C70.345 8.53667 70.191 8.588 69.9857 8.588C69.8097 8.588 69.6667 8.55133 69.5567 8.478C69.454 8.40467 69.333 8.29833 69.1937 8.159L65.9487 4.914H65.9267V7.862C65.9267 8.08933 65.868 8.269 65.7507 8.401C65.6334 8.52567 65.4574 8.588 65.2227 8.588ZM1.20871 23.588C0.981382 23.588 0.805382 23.5257 0.680715 23.401C0.563382 23.269 0.504715 23.0893 0.504715 22.862V16.383C0.504715 16.1483 0.563382 15.9687 0.680715 15.844C0.805382 15.7193 0.981382 15.657 1.20871 15.657C1.43605 15.657 1.60838 15.7193 1.72571 15.844C1.85038 15.9687 1.91271 16.1483 1.91271 16.383V22.862C1.91271 23.0893 1.85405 23.269 1.73671 23.401C1.61938 23.5257 1.44338 23.588 1.20871 23.588ZM7.05221 23.61C6.72954 23.61 6.40687 23.5843 6.08421 23.533C5.76154 23.489 5.45721 23.4193 5.17121 23.324C4.88521 23.2213 4.62854 23.0967 4.40121 22.95C4.26921 22.862 4.17754 22.7557 4.12621 22.631C4.07487 22.5063 4.05654 22.3853 4.07121 22.268C4.09321 22.1433 4.14087 22.037 4.21421 21.949C4.29487 21.8537 4.39387 21.795 4.51121 21.773C4.62854 21.751 4.75687 21.784 4.89621 21.872C5.21887 22.0627 5.55987 22.202 5.91921 22.29C6.27854 22.378 6.65621 22.422 7.05221 22.422C7.63154 22.422 8.05321 22.3267 8.31721 22.136C8.58121 21.938 8.71321 21.685 8.71321 21.377C8.71321 21.1203 8.61787 20.9187 8.42721 20.772C8.24387 20.6253 7.92487 20.5043 7.47021 20.409L6.26021 20.156C5.56354 20.0093 5.04287 19.7637 4.69821 19.419C4.36087 19.067 4.19221 18.605 4.19221 18.033C4.19221 17.6737 4.26554 17.3473 4.41221 17.054C4.55887 16.7607 4.76421 16.5077 5.02821 16.295C5.29954 16.0823 5.61854 15.921 5.98521 15.811C6.35921 15.6937 6.76987 15.635 7.21721 15.635C7.65721 15.635 8.07521 15.69 8.47121 15.8C8.86721 15.91 9.22287 16.0713 9.53821 16.284C9.65554 16.3647 9.73254 16.4637 9.76921 16.581C9.81321 16.6983 9.82421 16.8157 9.80221 16.933C9.78021 17.043 9.72887 17.1383 9.64821 17.219C9.56754 17.2997 9.46487 17.3473 9.34021 17.362C9.22287 17.3767 9.08721 17.34 8.93321 17.252C8.66187 17.098 8.38687 16.988 8.10821 16.922C7.82954 16.856 7.52887 16.823 7.20621 16.823C6.86887 16.823 6.57921 16.8707 6.33721 16.966C6.09521 17.0613 5.90821 17.197 5.77621 17.373C5.65154 17.5417 5.58921 17.7433 5.58921 17.978C5.58921 18.242 5.67721 18.4547 5.85321 18.616C6.02921 18.77 6.32987 18.891 6.75521 18.979L7.95421 19.232C8.68021 19.386 9.21921 19.628 9.57121 19.958C9.93054 20.288 10.1102 20.728 10.1102 21.278C10.1102 21.63 10.0369 21.949 9.89021 22.235C9.75087 22.521 9.54554 22.7667 9.27421 22.972C9.01021 23.1773 8.69121 23.335 8.31721 23.445C7.94321 23.555 7.52154 23.61 7.05221 23.61ZM12.8037 23.5C12.5763 23.5 12.4003 23.4377 12.2757 23.313C12.151 23.181 12.0887 23.0013 12.0887 22.774V16.427C12.0887 16.1923 12.1473 16.0163 12.2647 15.899C12.3893 15.7743 12.5653 15.712 12.7927 15.712C13.02 15.712 13.1923 15.7743 13.3097 15.899C13.4343 16.0163 13.4967 16.1923 13.4967 16.427V22.301H16.6867C16.8847 22.301 17.035 22.3523 17.1377 22.455C17.2477 22.5577 17.3027 22.7043 17.3027 22.895C17.3027 23.0857 17.2477 23.236 17.1377 23.346C17.035 23.4487 16.8847 23.5 16.6867 23.5H12.8037ZM18.9405 23.588C18.7645 23.588 18.6215 23.5477 18.5115 23.467C18.4089 23.3863 18.3465 23.28 18.3245 23.148C18.3025 23.0087 18.3282 22.8547 18.4015 22.686L21.3055 16.251C21.4009 16.0383 21.5145 15.888 21.6465 15.8C21.7859 15.7047 21.9435 15.657 22.1195 15.657C22.2882 15.657 22.4385 15.7047 22.5705 15.8C22.7099 15.888 22.8272 16.0383 22.9225 16.251L25.8375 22.686C25.9182 22.8547 25.9475 23.0087 25.9255 23.148C25.9035 23.2873 25.8412 23.3973 25.7385 23.478C25.6359 23.5513 25.5002 23.588 25.3315 23.588C25.1262 23.588 24.9649 23.5403 24.8475 23.445C24.7375 23.3423 24.6385 23.1883 24.5505 22.983L23.8355 21.322L24.4295 21.707H19.7875L20.3815 21.322L19.6775 22.983C19.5822 23.1957 19.4832 23.3497 19.3805 23.445C19.2779 23.5403 19.1312 23.588 18.9405 23.588ZM22.0975 17.274L20.5575 20.937L20.2715 20.585H23.9455L23.6705 20.937L22.1195 17.274H22.0975ZM28.4791 23.588C28.2738 23.588 28.1161 23.5293 28.0061 23.412C27.8961 23.2947 27.8411 23.1333 27.8411 22.928V16.317C27.8411 16.1043 27.8998 15.943 28.0171 15.833C28.1344 15.7157 28.2958 15.657 28.5011 15.657C28.6844 15.657 28.8274 15.6937 28.9301 15.767C29.0401 15.833 29.1391 15.9503 29.2271 16.119L31.9441 21.146H31.5921L34.3091 16.119C34.3971 15.9503 34.4924 15.833 34.5951 15.767C34.6978 15.6937 34.8408 15.657 35.0241 15.657C35.2294 15.657 35.3871 15.7157 35.4971 15.833C35.6071 15.943 35.6621 16.1043 35.6621 16.317V22.928C35.6621 23.1333 35.6071 23.2947 35.4971 23.412C35.3944 23.5293 35.2368 23.588 35.0241 23.588C34.8188 23.588 34.6611 23.5293 34.5511 23.412C34.4411 23.2947 34.3861 23.1333 34.3861 22.928V17.835H34.6281L32.3181 22.048C32.2448 22.1727 32.1678 22.2643 32.0871 22.323C32.0064 22.3817 31.8964 22.411 31.7571 22.411C31.6178 22.411 31.5041 22.3817 31.4161 22.323C31.3281 22.257 31.2511 22.1653 31.1851 22.048L28.8531 17.824H29.1171V22.928C29.1171 23.1333 29.0621 23.2947 28.9521 23.412C28.8494 23.5293 28.6918 23.588 28.4791 23.588ZM38.8429 23.588C38.6156 23.588 38.4396 23.5257 38.3149 23.401C38.1976 23.269 38.1389 23.0893 38.1389 22.862V16.383C38.1389 16.1483 38.1976 15.9687 38.3149 15.844C38.4396 15.7193 38.6156 15.657 38.8429 15.657C39.0702 15.657 39.2426 15.7193 39.3599 15.844C39.4846 15.9687 39.5469 16.1483 39.5469 16.383V22.862C39.5469 23.0893 39.4882 23.269 39.3709 23.401C39.2536 23.5257 39.0776 23.588 38.8429 23.588ZM45.6214 23.61C44.8147 23.61 44.1217 23.4487 43.5424 23.126C42.9704 22.796 42.5304 22.334 42.2224 21.74C41.9144 21.1387 41.7604 20.431 41.7604 19.617C41.7604 19.0083 41.8484 18.462 42.0244 17.978C42.2004 17.4867 42.4534 17.0687 42.7834 16.724C43.1134 16.372 43.5167 16.1043 43.9934 15.921C44.4774 15.7303 45.0201 15.635 45.6214 15.635C46.0247 15.635 46.4207 15.6863 46.8094 15.789C47.1981 15.8917 47.5391 16.0383 47.8324 16.229C47.9864 16.3243 48.0891 16.4417 48.1404 16.581C48.1917 16.713 48.2027 16.845 48.1734 16.977C48.1441 17.1017 48.0817 17.208 47.9864 17.296C47.8984 17.384 47.7847 17.4353 47.6454 17.45C47.5134 17.4573 47.3667 17.4097 47.2054 17.307C46.9781 17.1603 46.7324 17.054 46.4684 16.988C46.2044 16.922 45.9367 16.889 45.6654 16.889C45.1447 16.889 44.7047 16.9953 44.3454 17.208C43.9861 17.4207 43.7147 17.7287 43.5314 18.132C43.3481 18.5353 43.2564 19.0303 43.2564 19.617C43.2564 20.1963 43.3481 20.6913 43.5314 21.102C43.7147 21.5127 43.9861 21.8243 44.3454 22.037C44.7047 22.2497 45.1447 22.356 45.6654 22.356C45.9441 22.356 46.2191 22.323 46.4904 22.257C46.7617 22.1837 47.0184 22.0737 47.2604 21.927C47.4217 21.8317 47.5647 21.7913 47.6894 21.806C47.8214 21.8133 47.9314 21.8573 48.0194 21.938C48.1074 22.0187 48.1661 22.1213 48.1954 22.246C48.2247 22.3633 48.2174 22.488 48.1734 22.62C48.1294 22.7447 48.0414 22.8547 47.9094 22.95C47.6161 23.1627 47.2641 23.3277 46.8534 23.445C46.4501 23.555 46.0394 23.61 45.6214 23.61ZM1.25271 38.5C1.01071 38.5 0.823715 38.4377 0.691715 38.313C0.567048 38.181 0.504715 37.994 0.504715 37.752V31.493C0.504715 31.251 0.567048 31.0677 0.691715 30.943C0.823715 30.811 1.01071 30.745 1.25271 30.745H3.38672C4.68472 30.745 5.68572 31.0787 6.38972 31.746C7.10105 32.4133 7.45672 33.3703 7.45672 34.617C7.45672 35.2403 7.36505 35.794 7.18172 36.278C7.00572 36.7547 6.74172 37.158 6.38972 37.488C6.04505 37.818 5.61971 38.071 5.11372 38.247C4.61505 38.4157 4.03938 38.5 3.38672 38.5H1.25271ZM1.91271 37.334H3.29872C3.75338 37.334 4.14571 37.279 4.47572 37.169C4.81305 37.0517 5.09172 36.883 5.31171 36.663C5.53905 36.4357 5.70771 36.1533 5.81771 35.816C5.92772 35.4713 5.98272 35.0717 5.98272 34.617C5.98272 33.7077 5.75905 33.0293 5.31171 32.582C4.86438 32.1347 4.19338 31.911 3.29872 31.911H1.91271V37.334ZM10.4016 38.5C10.1596 38.5 9.97262 38.4377 9.84062 38.313C9.71595 38.181 9.65362 37.994 9.65362 37.752V31.493C9.65362 31.251 9.71595 31.0677 9.84062 30.943C9.97262 30.811 10.1596 30.745 10.4016 30.745H14.3286C14.512 30.745 14.6513 30.7927 14.7466 30.888C14.8493 30.9833 14.9006 31.119 14.9006 31.295C14.9006 31.4783 14.8493 31.6213 14.7466 31.724C14.6513 31.8193 14.512 31.867 14.3286 31.867H11.0066V34.001H14.0866C14.2773 34.001 14.4203 34.0487 14.5156 34.144C14.611 34.2393 14.6586 34.3787 14.6586 34.562C14.6586 34.7453 14.611 34.8847 14.5156 34.98C14.4203 35.0753 14.2773 35.123 14.0866 35.123H11.0066V37.378H14.3286C14.512 37.378 14.6513 37.4257 14.7466 37.521C14.8493 37.6163 14.9006 37.7557 14.9006 37.939C14.9006 38.1223 14.8493 38.2617 14.7466 38.357C14.6513 38.4523 14.512 38.5 14.3286 38.5H10.4016ZM20.0349 38.588C19.8369 38.588 19.6719 38.544 19.5399 38.456C19.4152 38.3607 19.3125 38.2213 19.2319 38.038L16.3609 31.592C16.2802 31.4087 16.2582 31.2473 16.2949 31.108C16.3315 30.9687 16.4085 30.8587 16.5259 30.778C16.6432 30.6973 16.7825 30.657 16.9439 30.657C17.1565 30.657 17.3142 30.7047 17.4169 30.8C17.5269 30.888 17.6185 31.0237 17.6919 31.207L20.2989 37.246H19.8259L22.4219 31.196C22.5025 31.02 22.5979 30.888 22.7079 30.8C22.8179 30.7047 22.9719 30.657 23.1699 30.657C23.3312 30.657 23.4632 30.6973 23.5659 30.778C23.6759 30.8587 23.7455 30.9687 23.7749 31.108C23.8042 31.2473 23.7785 31.4087 23.6979 31.592L20.8269 38.038C20.7462 38.2213 20.6435 38.3607 20.5189 38.456C20.4015 38.544 20.2402 38.588 20.0349 38.588ZM26.3147 38.5C26.0727 38.5 25.8857 38.4377 25.7537 38.313C25.629 38.181 25.5667 37.994 25.5667 37.752V31.493C25.5667 31.251 25.629 31.0677 25.7537 30.943C25.8857 30.811 26.0727 30.745 26.3147 30.745H30.2417C30.425 30.745 30.5643 30.7927 30.6597 30.888C30.7623 30.9833 30.8137 31.119 30.8137 31.295C30.8137 31.4783 30.7623 31.6213 30.6597 31.724C30.5643 31.8193 30.425 31.867 30.2417 31.867H26.9197V34.001H29.9997C30.1903 34.001 30.3333 34.0487 30.4287 34.144C30.524 34.2393 30.5717 34.3787 30.5717 34.562C30.5717 34.7453 30.524 34.8847 30.4287 34.98C30.3333 35.0753 30.1903 35.123 29.9997 35.123H26.9197V37.378H30.2417C30.425 37.378 30.5643 37.4257 30.6597 37.521C30.7623 37.6163 30.8137 37.7557 30.8137 37.939C30.8137 38.1223 30.7623 38.2617 30.6597 38.357C30.5643 38.4523 30.425 38.5 30.2417 38.5H26.3147ZM33.6151 38.5C33.3878 38.5 33.2118 38.4377 33.0871 38.313C32.9625 38.181 32.9001 38.0013 32.9001 37.774V31.427C32.9001 31.1923 32.9588 31.0163 33.0761 30.899C33.2008 30.7743 33.3768 30.712 33.6041 30.712C33.8315 30.712 34.0038 30.7743 34.1211 30.899C34.2458 31.0163 34.3081 31.1923 34.3081 31.427V37.301H37.4981C37.6961 37.301 37.8465 37.3523 37.9491 37.455C38.0591 37.5577 38.1141 37.7043 38.1141 37.895C38.1141 38.0857 38.0591 38.236 37.9491 38.346C37.8465 38.4487 37.6961 38.5 37.4981 38.5H33.6151ZM42.904 38.61C42.156 38.61 41.4996 38.445 40.935 38.115C40.3776 37.785 39.945 37.323 39.637 36.729C39.329 36.1277 39.175 35.4237 39.175 34.617C39.175 34.0083 39.263 33.462 39.439 32.978C39.615 32.4867 39.8643 32.0687 40.187 31.724C40.517 31.372 40.9093 31.1043 41.364 30.921C41.826 30.7303 42.3393 30.635 42.904 30.635C43.6593 30.635 44.3156 30.8 44.873 31.13C45.4303 31.4527 45.863 31.911 46.171 32.505C46.479 33.099 46.633 33.7993 46.633 34.606C46.633 35.2147 46.545 35.7647 46.369 36.256C46.193 36.7473 45.94 37.169 45.61 37.521C45.2873 37.873 44.895 38.1443 44.433 38.335C43.9783 38.5183 43.4686 38.61 42.904 38.61ZM42.904 37.4C43.3806 37.4 43.784 37.29 44.114 37.07C44.4513 36.85 44.708 36.531 44.884 36.113C45.0673 35.695 45.159 35.1963 45.159 34.617C45.159 33.737 44.961 33.055 44.565 32.571C44.1763 32.087 43.6226 31.845 42.904 31.845C42.4346 31.845 42.0313 31.955 41.694 32.175C41.3566 32.3877 41.0963 32.703 40.913 33.121C40.737 33.5317 40.649 34.0303 40.649 34.617C40.649 35.4897 40.847 36.1717 41.243 36.663C41.639 37.1543 42.1926 37.4 42.904 37.4ZM49.5387 38.588C49.3113 38.588 49.1353 38.5257 49.0107 38.401C48.8933 38.269 48.8347 38.0893 48.8347 37.862V31.46C48.8347 31.2253 48.897 31.0493 49.0217 30.932C49.1463 30.8073 49.3223 30.745 49.5497 30.745H52.2007C53.0513 30.745 53.7077 30.9577 54.1697 31.383C54.6317 31.8083 54.8627 32.4023 54.8627 33.165C54.8627 33.9277 54.6317 34.5253 54.1697 34.958C53.7077 35.3833 53.0513 35.596 52.2007 35.596H50.2427V37.862C50.2427 38.0893 50.184 38.269 50.0667 38.401C49.9493 38.5257 49.7733 38.588 49.5387 38.588ZM50.2427 34.485H51.9807C52.4793 34.485 52.857 34.375 53.1137 34.155C53.3703 33.9277 53.4987 33.5977 53.4987 33.165C53.4987 32.7323 53.3703 32.406 53.1137 32.186C52.857 31.966 52.4793 31.856 51.9807 31.856H50.2427V34.485ZM57.4405 38.588C57.2351 38.588 57.0775 38.5293 56.9675 38.412C56.8575 38.2947 56.8025 38.1333 56.8025 37.928V31.317C56.8025 31.1043 56.8611 30.943 56.9785 30.833C57.0958 30.7157 57.2571 30.657 57.4625 30.657C57.6458 30.657 57.7888 30.6937 57.8915 30.767C58.0015 30.833 58.1005 30.9503 58.1885 31.119L60.9055 36.146H60.5535L63.2705 31.119C63.3585 30.9503 63.4538 30.833 63.5565 30.767C63.6591 30.6937 63.8021 30.657 63.9855 30.657C64.1908 30.657 64.3485 30.7157 64.4585 30.833C64.5685 30.943 64.6235 31.1043 64.6235 31.317V37.928C64.6235 38.1333 64.5685 38.2947 64.4585 38.412C64.3558 38.5293 64.1981 38.588 63.9855 38.588C63.7801 38.588 63.6225 38.5293 63.5125 38.412C63.4025 38.2947 63.3475 38.1333 63.3475 37.928V32.835H63.5895L61.2795 37.048C61.2061 37.1727 61.1291 37.2643 61.0485 37.323C60.9678 37.3817 60.8578 37.411 60.7185 37.411C60.5791 37.411 60.4655 37.3817 60.3775 37.323C60.2895 37.257 60.2125 37.1653 60.1465 37.048L57.8145 32.824H58.0785V37.928C58.0785 38.1333 58.0235 38.2947 57.9135 38.412C57.8108 38.5293 57.6531 38.588 57.4405 38.588ZM67.8483 38.5C67.6063 38.5 67.4193 38.4377 67.2873 38.313C67.1626 38.181 67.1003 37.994 67.1003 37.752V31.493C67.1003 31.251 67.1626 31.0677 67.2873 30.943C67.4193 30.811 67.6063 30.745 67.8483 30.745H71.7753C71.9586 30.745 72.0979 30.7927 72.1933 30.888C72.2959 30.9833 72.3473 31.119 72.3473 31.295C72.3473 31.4783 72.2959 31.6213 72.1933 31.724C72.0979 31.8193 71.9586 31.867 71.7753 31.867H68.4533V34.001H71.5333C71.7239 34.001 71.8669 34.0487 71.9623 34.144C72.0576 34.2393 72.1053 34.3787 72.1053 34.562C72.1053 34.7453 72.0576 34.8847 71.9623 34.98C71.8669 35.0753 71.7239 35.123 71.5333 35.123H68.4533V37.378H71.7753C71.9586 37.378 72.0979 37.4257 72.1933 37.521C72.2959 37.6163 72.3473 37.7557 72.3473 37.939C72.3473 38.1223 72.2959 38.2617 72.1933 38.357C72.0979 38.4523 71.9586 38.5 71.7753 38.5H67.8483ZM75.0937 38.588C74.8811 38.588 74.7161 38.5293 74.5987 38.412C74.4887 38.2947 74.4337 38.126 74.4337 37.906V31.361C74.4337 31.1337 74.4887 30.9613 74.5987 30.844C74.7161 30.7193 74.8664 30.657 75.0497 30.657C75.2184 30.657 75.3431 30.69 75.4237 30.756C75.5117 30.8147 75.6144 30.9173 75.7317 31.064L79.9447 36.531H79.6587V31.328C79.6587 31.1153 79.7137 30.9503 79.8237 30.833C79.9411 30.7157 80.1061 30.657 80.3187 30.657C80.5314 30.657 80.6927 30.7157 80.8027 30.833C80.9127 30.9503 80.9677 31.1153 80.9677 31.328V37.928C80.9677 38.1333 80.9164 38.2947 80.8137 38.412C80.7111 38.5293 80.5717 38.588 80.3957 38.588C80.2271 38.588 80.0914 38.555 79.9887 38.489C79.8934 38.423 79.7871 38.3167 79.6697 38.17L75.4677 32.703H75.7427V37.906C75.7427 38.126 75.6877 38.2947 75.5777 38.412C75.4677 38.5293 75.3064 38.588 75.0937 38.588ZM86.0063 38.588C85.7789 38.588 85.6029 38.5257 85.4783 38.401C85.3609 38.269 85.3023 38.0893 85.3023 37.862V31.922H83.1573C82.9666 31.922 82.8163 31.8707 82.7063 31.768C82.6036 31.658 82.5523 31.5113 82.5523 31.328C82.5523 31.1373 82.6036 30.9943 82.7063 30.899C82.8163 30.7963 82.9666 30.745 83.1573 30.745H88.8553C89.0459 30.745 89.1926 30.7963 89.2953 30.899C89.4053 30.9943 89.4603 31.1373 89.4603 31.328C89.4603 31.5113 89.4053 31.658 89.2953 31.768C89.1926 31.8707 89.0459 31.922 88.8553 31.922H86.7103V37.862C86.7103 38.0893 86.6516 38.269 86.5343 38.401C86.4169 38.5257 86.2409 38.588 86.0063 38.588ZM1.16471 53.588C0.952048 53.588 0.787048 53.5293 0.669715 53.412C0.559715 53.2947 0.504715 53.126 0.504715 52.906V46.361C0.504715 46.1337 0.559715 45.9613 0.669715 45.844C0.787048 45.7193 0.937382 45.657 1.12071 45.657C1.28938 45.657 1.41405 45.69 1.49471 45.756C1.58271 45.8147 1.68538 45.9173 1.80271 46.064L6.01571 51.531H5.72972V46.328C5.72972 46.1153 5.78472 45.9503 5.89472 45.833C6.01205 45.7157 6.17705 45.657 6.38972 45.657C6.60238 45.657 6.76372 45.7157 6.87372 45.833C6.98371 45.9503 7.03871 46.1153 7.03871 46.328V52.928C7.03871 53.1333 6.98738 53.2947 6.88471 53.412C6.78205 53.5293 6.64271 53.588 6.46672 53.588C6.29805 53.588 6.16238 53.555 6.05972 53.489C5.96438 53.423 5.85805 53.3167 5.74072 53.17L1.53871 47.703H1.81371V52.906C1.81371 53.126 1.75871 53.2947 1.64871 53.412C1.53871 53.5293 1.37738 53.588 1.16471 53.588ZM10.2512 53.5C10.0092 53.5 9.82223 53.4377 9.69023 53.313C9.56556 53.181 9.50323 52.994 9.50323 52.752V46.493C9.50323 46.251 9.56556 46.0677 9.69023 45.943C9.82223 45.811 10.0092 45.745 10.2512 45.745H14.1782C14.3616 45.745 14.5009 45.7927 14.5962 45.888C14.6989 45.9833 14.7502 46.119 14.7502 46.295C14.7502 46.4783 14.6989 46.6213 14.5962 46.724C14.5009 46.8193 14.3616 46.867 14.1782 46.867H10.8562V49.001H13.9362C14.1269 49.001 14.2699 49.0487 14.3652 49.144C14.4606 49.2393 14.5082 49.3787 14.5082 49.562C14.5082 49.7453 14.4606 49.8847 14.3652 49.98C14.2699 50.0753 14.1269 50.123 13.9362 50.123H10.8562V52.378H14.1782C14.3616 52.378 14.5009 52.4257 14.5962 52.521C14.6989 52.6163 14.7502 52.7557 14.7502 52.939C14.7502 53.1223 14.6989 53.2617 14.5962 53.357C14.5009 53.4523 14.3616 53.5 14.1782 53.5H10.2512ZM19.357 53.588C19.1297 53.588 18.9537 53.5257 18.829 53.401C18.7117 53.269 18.653 53.0893 18.653 52.862V46.922H16.508C16.3173 46.922 16.167 46.8707 16.057 46.768C15.9543 46.658 15.903 46.5113 15.903 46.328C15.903 46.1373 15.9543 45.9943 16.057 45.899C16.167 45.7963 16.3173 45.745 16.508 45.745H22.206C22.3967 45.745 22.5433 45.7963 22.646 45.899C22.756 45.9943 22.811 46.1373 22.811 46.328C22.811 46.5113 22.756 46.658 22.646 46.768C22.5433 46.8707 22.3967 46.922 22.206 46.922H20.061V52.862C20.061 53.0893 20.0023 53.269 19.885 53.401C19.7677 53.5257 19.5917 53.588 19.357 53.588ZM27.2742 53.588C27.0762 53.588 26.9148 53.5403 26.7902 53.445C26.6728 53.3497 26.5775 53.1993 26.5042 52.994L24.2052 46.493C24.1245 46.2583 24.1392 46.0603 24.2492 45.899C24.3665 45.7377 24.5608 45.657 24.8322 45.657C25.0302 45.657 25.1842 45.7047 25.2942 45.8C25.4042 45.888 25.4922 46.031 25.5582 46.229L27.5382 52.103H27.0982L29.1662 46.24C29.2395 46.042 29.3312 45.8953 29.4412 45.8C29.5512 45.7047 29.6942 45.657 29.8702 45.657C30.0462 45.657 30.1855 45.7047 30.2882 45.8C30.3908 45.8953 30.4788 46.0457 30.5522 46.251L32.5542 52.103H32.1692L34.1822 46.229C34.2482 46.0383 34.3362 45.8953 34.4462 45.8C34.5562 45.7047 34.7065 45.657 34.8972 45.657C35.1318 45.657 35.3042 45.7377 35.4142 45.899C35.5242 46.0603 35.5388 46.2583 35.4582 46.493L33.1372 53.005C33.0638 53.203 32.9685 53.3497 32.8512 53.445C32.7338 53.5403 32.5762 53.588 32.3782 53.588C32.1802 53.588 32.0225 53.5403 31.9052 53.445C31.7878 53.3497 31.6925 53.1993 31.6192 52.994L29.7052 47.538H29.9582L28.0222 53.005C27.9488 53.203 27.8535 53.3497 27.7362 53.445C27.6262 53.5403 27.4722 53.588 27.2742 53.588ZM40.8449 53.61C40.0969 53.61 39.4406 53.445 38.8759 53.115C38.3186 52.785 37.8859 52.323 37.5779 51.729C37.2699 51.1277 37.1159 50.4237 37.1159 49.617C37.1159 49.0083 37.2039 48.462 37.3799 47.978C37.5559 47.4867 37.8052 47.0687 38.1279 46.724C38.4579 46.372 38.8502 46.1043 39.3049 45.921C39.7669 45.7303 40.2802 45.635 40.8449 45.635C41.6002 45.635 42.2566 45.8 42.8139 46.13C43.3712 46.4527 43.8039 46.911 44.1119 47.505C44.4199 48.099 44.5739 48.7993 44.5739 49.606C44.5739 50.2147 44.4859 50.7647 44.3099 51.256C44.1339 51.7473 43.8809 52.169 43.5509 52.521C43.2282 52.873 42.8359 53.1443 42.3739 53.335C41.9192 53.5183 41.4096 53.61 40.8449 53.61ZM40.8449 52.4C41.3216 52.4 41.7249 52.29 42.0549 52.07C42.3922 51.85 42.6489 51.531 42.8249 51.113C43.0082 50.695 43.0999 50.1963 43.0999 49.617C43.0999 48.737 42.9019 48.055 42.5059 47.571C42.1172 47.087 41.5636 46.845 40.8449 46.845C40.3756 46.845 39.9722 46.955 39.6349 47.175C39.2976 47.3877 39.0372 47.703 38.8539 48.121C38.6779 48.5317 38.5899 49.0303 38.5899 49.617C38.5899 50.4897 38.7879 51.1717 39.1839 51.663C39.5799 52.1543 40.1336 52.4 40.8449 52.4ZM47.4796 53.588C47.2523 53.588 47.0763 53.5257 46.9516 53.401C46.8343 53.269 46.7756 53.0893 46.7756 52.862V46.46C46.7756 46.2253 46.8379 46.0493 46.9626 45.932C47.0873 45.8073 47.2633 45.745 47.4906 45.745H50.1416C50.9923 45.745 51.6486 45.9503 52.1106 46.361C52.5726 46.7643 52.8036 47.3327 52.8036 48.066C52.8036 48.5427 52.6973 48.9533 52.4846 49.298C52.2793 49.6427 51.9786 49.9067 51.5826 50.09C51.1866 50.2733 50.7063 50.365 50.1416 50.365L50.2406 50.2H50.6036C50.9043 50.2 51.1646 50.2733 51.3846 50.42C51.6119 50.5667 51.8099 50.7977 51.9786 51.113L52.8036 52.642C52.8916 52.796 52.9319 52.9463 52.9246 53.093C52.9173 53.2397 52.8623 53.3607 52.7596 53.456C52.6569 53.544 52.5066 53.588 52.3086 53.588C52.1106 53.588 51.9493 53.5477 51.8246 53.467C51.6999 53.379 51.5899 53.247 51.4946 53.071L50.3836 51.025C50.2516 50.7757 50.0939 50.6107 49.9106 50.53C49.7346 50.442 49.5073 50.398 49.2286 50.398H48.1836V52.862C48.1836 53.0893 48.1249 53.269 48.0076 53.401C47.8903 53.5257 47.7143 53.588 47.4796 53.588ZM48.1836 49.353H49.8996C50.4056 49.353 50.7869 49.2503 51.0436 49.045C51.3076 48.8323 51.4396 48.517 51.4396 48.099C51.4396 47.6883 51.3076 47.3803 51.0436 47.175C50.7869 46.9623 50.4056 46.856 49.8996 46.856H48.1836V49.353ZM55.7906 53.588C55.5633 53.588 55.3873 53.5257 55.2626 53.401C55.1453 53.269 55.0866 53.0893 55.0866 52.862V46.372C55.0866 46.1373 55.1453 45.9613 55.2626 45.844C55.3873 45.7193 55.5633 45.657 55.7906 45.657C56.018 45.657 56.1903 45.7193 56.3076 45.844C56.4323 45.9613 56.4946 46.1373 56.4946 46.372V49.177H56.5166L59.6736 46.009C59.791 45.8917 59.9083 45.8037 60.0256 45.745C60.143 45.6863 60.275 45.657 60.4216 45.657C60.6343 45.657 60.7846 45.712 60.8726 45.822C60.968 45.932 61.0046 46.0603 60.9826 46.207C60.968 46.3537 60.8983 46.4893 60.7736 46.614L57.5616 49.793L57.5726 49.155L60.9276 52.565C61.0816 52.7117 61.1623 52.8657 61.1696 53.027C61.177 53.1883 61.1256 53.324 61.0156 53.434C60.913 53.5367 60.759 53.588 60.5536 53.588C60.3776 53.588 60.2346 53.5513 60.1246 53.478C60.022 53.4047 59.901 53.2983 59.7616 53.159L56.5166 49.914H56.4946V52.862C56.4946 53.0893 56.436 53.269 56.3186 53.401C56.2013 53.5257 56.0253 53.588 55.7906 53.588Z" fill="white"/>
</svg>
