<svg xmlns="http://www.w3.org/2000/svg" width="83" height="61" fill="none" viewBox="0 0 83 61"><path fill="#fff" d="M65.6004 9.72246C65.6004 9.72246 55.8938 7.80275 50.2335 10.9064V0.774414H36.2306V7.19827C36.2306 7.19827 36.4656 12.6217 27.7143 13.6966C18.9631 14.7715 0.090332 20.1949 0.090332 38.5892V60.0838C0.090332 60.0838 8.6596 61.5479 12.7881 53.7574C12.7881 53.7574 20.5391 61.1201 36.2327 56.5618C36.2327 56.5618 45.9026 53.0162 48.7573 43.2511C51.6119 33.486 46.3637 22.5296 59.2821 21.4546C59.2821 21.4546 68.7884 20.3966 68.671 33.639C68.671 46.826 66.566 60.1135 77.3557 60.2523L82.6521 60.238V32.3041C82.6521 32.3041 83.4771 14.6097 65.6038 9.72246H65.6004ZM36.3597 35.3685L36.3033 35.3231C36.5048 37.1555 36.1555 39.0062 35.2998 40.6403C34.4442 42.2744 33.1207 43.6182 31.4975 44.5011C29.8743 45.3839 28.0245 45.766 26.183 45.5989C24.3415 45.4317 22.5914 44.7229 21.1548 43.5622C19.7183 42.4016 18.6601 40.8417 18.1145 39.0804C17.569 37.3191 17.5608 35.4359 18.091 33.6699C18.6211 31.904 19.6657 30.3349 21.0921 29.1619C22.5185 27.9889 24.2624 27.2649 26.1023 27.0818L26.0453 27.0357C33.4942 26.1828 36.8465 24.9373 36.8465 24.9373C36.2749 28.3829 36.1115 31.8835 36.3597 35.3671"/></svg>