<svg xmlns="http://www.w3.org/2000/svg" width="55" height="55" fill="none" viewBox="0 0 55 55"><path fill="#004899" d="M36.0938 39.5312C37.9922 39.5312 39.5312 37.9922 39.5312 36.0938C39.5312 34.1953 37.9922 32.6562 36.0938 32.6562C34.1953 32.6562 32.6562 34.1953 32.6562 36.0938C32.6562 37.9922 34.1953 39.5312 36.0938 39.5312Z"/><path fill="#004899" d="M12.0312 15.4688C13.9297 15.4688 15.4688 13.9297 15.4688 12.0312C15.4688 10.1328 13.9297 8.59375 12.0312 8.59375C10.1328 8.59375 8.59375 10.1328 8.59375 12.0312C8.59375 13.9297 10.1328 15.4688 12.0312 15.4688Z"/><path fill="#004899" d="M46.4063 53.2813C45.0465 53.2813 43.7173 52.878 42.5867 52.1226C41.4561 51.3672 40.5749 50.2934 40.0546 49.0372C39.5342 47.781 39.3981 46.3986 39.6634 45.065C39.9286 43.7314 40.5834 42.5064 41.5449 41.5449C42.5064 40.5834 43.7314 39.9286 45.065 39.6634C46.3986 39.3981 47.781 39.5342 49.0372 40.0546C50.2934 40.5749 51.3672 41.4561 52.1226 42.5867C52.878 43.7173 53.2813 45.0465 53.2813 46.4063C53.2758 48.2279 52.5497 49.9735 51.2616 51.2616C49.9735 52.5497 48.2279 53.2758 46.4063 53.2813ZM46.4063 42.9688C45.7264 42.9688 45.0618 43.1704 44.4965 43.5481C43.9312 43.9258 43.4906 44.4627 43.2304 45.0908C42.9702 45.7189 42.9022 46.4101 43.0348 47.0769C43.1674 47.7437 43.4948 48.3562 43.9756 48.8369C44.4563 49.3177 45.0688 49.6451 45.7356 49.7777C46.4024 49.9103 47.0936 49.8423 47.7217 49.5821C48.3499 49.3219 48.8867 48.8813 49.2644 48.316C49.6421 47.7507 49.8438 47.0861 49.8438 46.4063C49.841 45.4954 49.478 44.6226 48.8339 43.9786C48.1899 43.3345 47.3171 42.9715 46.4063 42.9688Z"/><path fill="#004899" d="M51.5625 27.5001C51.5439 21.124 49.0028 15.0144 44.4942 10.5059C39.9856 5.99729 33.8761 3.45617 27.5 3.43758C23.3944 3.37902 19.3515 4.44919 15.8125 6.53133L17.7031 9.45321C19.0466 8.80746 20.4236 8.23373 21.8281 7.73446C18.9868 13.3409 17.4031 19.4998 17.1875 25.7813H6.875C7.06759 22.9434 7.88955 20.184 9.28125 17.7032L6.70313 15.4688C4.56452 19.1177 3.43727 23.2707 3.4375 27.5001C3.43705 30.6601 4.05914 33.7893 5.26823 36.7089C6.47732 39.6285 8.24974 42.2813 10.4842 44.5159C12.7187 46.7504 15.3715 48.5228 18.2911 49.7319C21.2107 50.9409 24.3399 51.563 27.5 51.5626C30.564 51.5914 33.6028 51.0071 36.4375 49.8438L35.4062 46.5782C32.5883 47.7832 29.5278 48.3129 26.4688 48.1251C22.8034 42.4877 20.78 35.9412 20.625 29.2188H51.3906C51.5327 28.6576 51.5906 28.0784 51.5625 27.5001ZM22 47.4376C18.5822 46.4132 15.4589 44.5863 12.8906 42.1095C9.48037 38.62 7.35891 34.074 6.875 29.2188H17.1875C17.424 35.573 19.0677 41.7955 22 47.4376ZM20.625 25.7813C20.7617 19.0808 22.7226 12.5443 26.2969 6.87508H28.7031C32.2774 12.5443 34.2383 19.0808 34.375 25.7813H20.625ZM37.8125 25.7813C37.6817 19.4119 36.0318 13.1657 33 7.56258C37.044 8.7282 40.6388 11.0941 43.3089 14.3473C45.979 17.6005 47.5985 21.5877 47.9531 25.7813H37.8125Z"/></svg>